Coordinates
version=1
nRows=8
nColumns=36
inDegrees=yes

Units are S.I. units (second, meters, Newtons, ...)
If the header above contains a line with 'inDegrees', this indicates whether rotational values are in degrees (yes) or radians (no).

endheader
time	pelvis_tilt	pelvis_list	pelvis_rotation	pelvis_tx	pelvis_ty	pelvis_tz	hip_flexion_r	hip_adduction_r	hip_rotation_r	knee_angle_r	knee_angle_r_beta	ankle_angle_r	subtalar_angle_r	mtp_angle_r	hip_flexion_l	hip_adduction_l	hip_rotation_l	knee_angle_l	knee_angle_l_beta	ankle_angle_l	subtalar_angle_l	mtp_angle_l	lumbar_extension	lumbar_bending	lumbar_rotation	arm_flex_r	arm_add_r	arm_rot_r	elbow_flex_r	pro_sup_r	arm_flex_l	arm_add_l	arm_rot_l	elbow_flex_l	pro_sup_l
      0.00000000	      2.62786528	      2.48306849	      8.61873203	     -0.34242726	      1.37303369	     -0.03081903	     -7.24512096	      0.12069900	      0.11798868	      4.48461645	      0.07827132	     11.84021504	    -10.89160204	     -5.92354594	     -6.68868407	      1.22444354	      8.61437261	      2.24780767	      0.03923164	      7.77840733	     -7.36238908	     -5.92354594	     -8.63894738	     -0.65157481	     -1.33961547	    -17.49214097	    -20.96511662	     13.78981108	     79.36350086	     86.33535045	    -24.15377235	    -20.82546565	      9.94942907	     90.89238241	     91.55824959
      0.01666670	     -1.37223024	      1.76150383	      7.97298750	     -0.33915484	      1.36762589	     -0.03019418	     -2.77523725	      0.24067239	      1.89312722	      5.25753578	      0.09176131	     14.37429721	     -8.61025839	     -6.47161840	     -1.71255268	      1.62872608	      9.60476195	      3.11427150	      0.05435429	      7.68981976	     -7.92375894	     -6.47161840	     -2.73627510	     -0.40139625	     -0.73085424	    -19.47660798	    -22.89721828	     15.22197188	     80.21835321	     90.34916668	    -26.72667161	    -20.20666565	      9.84523064	     91.32364347	     95.96114297
      0.03333330	     -2.34008217	      2.20179347	      7.55569369	     -0.33275941	      1.36126908	     -0.02648164	     -2.52144097	     -0.44903873	      2.56801409	      4.32078541	      0.07541193	     15.24805010	     -7.84445574	     -6.72827656	     -0.76027337	      2.09733828	      8.82403673	      3.22907078	      0.05635792	      8.43643578	     -6.73872685	     -6.72827656	     -0.92846700	     -1.49684990	     -0.44312142	    -20.79448628	    -22.87953372	     14.45129584	     81.17438886	     92.95949531	    -28.59285248	    -21.17648966	      8.97289293	     92.81257068	     96.98552141
      0.05000000	     -2.73182139	      2.40544013	      7.39775516	     -0.33220899	      1.36125969	     -0.02555766	     -2.42657507	     -0.60988608	      3.00916940	      3.75249573	      0.06549341	     15.58864729	     -7.52560809	     -6.75690957	     -0.73556891	      2.22787111	      8.88025169	      2.51806270	      0.04394848	      8.67400128	     -6.57296518	     -6.75690957	      0.07595096	     -1.99051102	     -0.21988917	    -21.29205508	    -22.65979248	     14.57236576	     81.00372589	     92.38617632	    -29.07074454	    -21.34765305	      8.78934043	     92.53781136	     96.38668702
      0.06666670	     -2.78776950	      2.56038116	      6.94124707	     -0.33244274	      1.36345774	     -0.02474593	     -2.58390246	     -0.76108363	      3.06313782	      3.28869667	      0.05739859	     15.38882962	     -7.40662796	     -6.93468503	     -1.06446560	      2.38780210	      8.68655011	      2.12765438	      0.03713457	      8.68283448	     -6.33107243	     -6.93468503	      0.33630172	     -2.46296727	     -0.24631662	    -21.32789737	    -22.11438810	     14.20492385	     80.35053617	     96.06256354	    -30.16495943	    -20.73654203	      7.11178341	     93.16803066	     98.69707218
      0.08333330	     -2.93553843	      2.61448839	      6.85124347	     -0.33917778	      1.36148545	     -0.02677876	     -2.37057469	     -0.82243062	      3.04213830	      3.04626063	      0.05316728	     15.33534929	     -7.42379806	     -6.93527680	     -1.10810176	      2.57524700	      8.77215479	      1.83547669	      0.03203511	      8.81819942	     -6.30188574	     -6.93527680	      0.43571322	     -2.52043877	     -0.20277842	    -21.06629322	    -22.20894333	     14.10092340	     80.35303461	     96.08951305	    -29.83150327	    -20.57459409	      7.09295652	     93.29643223	     98.72614328
      0.10000000	     -3.20114661	      2.67711087	      6.61781004	     -0.34015309	      1.36060972	     -0.02667967	     -1.93766679	     -0.97202744	      3.14371340	      3.05641234	      0.05334446	     14.84405812	     -8.06703070	     -7.05717458	     -0.91578589	      2.74099807	      8.49097758	      1.77133595	      0.03091564	      9.03545146	     -5.80805189	     -7.05717458	      0.79941959	     -2.52096188	     -0.00004506	    -20.69669148	    -22.41508204	     14.48991924	     79.90657197	     92.99724040	    -29.28180105	    -20.45057479	      7.63321961	     93.12642884	     95.46985566
      0.11666670	     -3.51943985	      2.65668846	      6.51655563	     -0.33995273	      1.35835468	     -0.02618164	     -1.48381434	     -1.03012025	      3.21514926	      3.17947976	      0.05549239	     14.85020538	     -8.17639545	     -7.18750083	     -0.57291263	      2.82291312	      8.56977383	      1.76455237	      0.03079725	      9.15001829	     -6.25879385	     -7.18750083	      1.17225201	     -2.48082707	     -0.35500724	    -20.60075581	    -22.53534591	     14.30434119	     80.15037271	     96.48224803	    -29.43894861	    -19.99666807	      6.91496731	     93.22589411	     99.01037468
